<svg width="240" height="240" viewBox="0 0 240 240" fill="none" xmlns="http://www.w3.org/2000/svg" role="img" aria-label="Philosopher OS temple emblem">
  <defs>
    <linearGradient id="goldEmblem" x1="40" y1="30" x2="200" y2="210" gradientUnits="userSpaceOnUse">
      <stop stop-color="#E0C682"></stop>
      <stop offset="0.5" stop-color="#C9A24D"></stop>
      <stop offset="1" stop-color="#A8883A"></stop>
    </linearGradient>
  </defs>
  <g stroke="url(#goldEmblem)" stroke-width="2.5" stroke-linecap="round" stroke-linejoin="round" fill="none">
    
    <circle cx="120" cy="120" r="92"></circle>
    
    <path d="M120 14 l5 8 -5 8 -5 -8 z" fill="url(#goldEmblem)" stroke="none"></path>
    <path d="M120 226 l5 -8 -5 -8 -5 8 z" fill="url(#goldEmblem)" stroke="none"></path>
    <path d="M14 120 l8 5 8 -5 -8 -5 z" fill="url(#goldEmblem)" stroke="none"></path>
    <path d="M226 120 l-8 5 -8 -5 8 -5 z" fill="url(#goldEmblem)" stroke="none"></path>
  </g>
  <g stroke="url(#goldEmblem)" stroke-width="3" stroke-linecap="round" stroke-linejoin="round" fill="none">
    
    <path d="M120 58 L171 92 L69 92 Z"></path>
    
    <line x1="68" y1="101" x2="172" y2="101"></line>
    
    <line x1="80" y1="104" x2="80" y2="158"></line>
    <line x1="100" y1="104" x2="100" y2="158"></line>
    <line x1="120" y1="104" x2="120" y2="158"></line>
    <line x1="140" y1="104" x2="140" y2="158"></line>
    <line x1="160" y1="104" x2="160" y2="158"></line>
    
    <line x1="66" y1="166" x2="174" y2="166"></line>
    <line x1="60" y1="176" x2="180" y2="176"></line>
  </g>
</svg>